name Run_400 01_newCOP3_v24.mot
datacolumns 19
datarows 145
range 4.108333 4.258333
DataType=double
version=3
OpenSimVersion=4.3-2021-08-27-4bc7ad9
endheader
time	R_ground_force_vx	R_ground_force_vy	R_ground_force_vz	R_ground_force_px	R_ground_force_py	R_ground_force_pz	L_ground_force_vx	L_ground_force_vy	L_ground_force_vz	L_ground_force_px	L_ground_force_py	L_ground_force_pz	R_ground_torque_x	R_ground_torque_y	R_ground_torque_z	L_ground_torque_x	L_ground_torque_y	L_ground_torque_z
4.108333	4.387366	14.741245	3.544755	0	0	0	0	0	0	0	0	0	0	0	0	0	0	0
4.109375	3.561861	14.218218	3.745311	0	0	0	0	0	0	0	0	0	0	0	0	0	0	0
4.110417	2.822674	13.759499	3.925198	0	0	0	0	0	0	0	0	0	0	0	0	0	0	0
4.111458	2.165254	13.347876	4.076961	0	0	0	0	0	0	0	0	0	0	0	0	0	0	0
4.1125	1.584806	12.968037	4.194311	0	0	0	0	0	0	0	0	0	0	0	0	0	0	0
4.113542	1.076327	12.606673	4.272237	0	0	0	0	0	0	0	0	0	0	0	0	0	0	0
4.114583	0.634666	12.252551	4.307076	0	0	0	0	0	0	0	0	0	0	0	0	0	0	0
4.115625	0.25457	11.896547	4.29655	0	0	0	0	0	0	0	0	0	0	0	0	0	0	0
4.116667	-0.069241	11.531646	4.239782	0	0	0	0	0	0	0	0	0	0	0	0	0	0	0
4.117708	-0.342018	11.152891	4.137261	0	0	0	0	0	0	0	0	0	0	0	0	0	0	0
4.11875	-0.568906	10.7573	3.990792	0	0	0	0	0	0	0	0	0	0	0	0	0	0	0
4.119792	-0.754885	10.343739	3.803403	0	0	0	0	0	0	0	0	0	0	0	0	0	0	0
4.120833	0	0	0	0	0	0	0	0	0	0	0	0	0	0	0	0	0	0
4.121875	0	0	0	0	0	0	0	0	0	0	0	0	0	0	0	0	0	0
4.122917	0	0	0	0	0	0	0	0	0	0	0	0	0	0	0	0	0	0
4.123958	0	0	0	0	0	0	0	0	0	0	0	0	0	0	0	0	0	0
4.125	0	0	0	0	0	0	0	0	0	0	0	0	0	0	0	0	0	0
4.126042	0	0	0	0	0	0	0	0	0	0	0	0	0	0	0	0	0	0
4.127083	0	0	0	0	0	0	0	0	0	0	0	0	0	0	0	0	0	0
4.128125	0	0	0	0	0	0	0	0	0	0	0	0	0	0	0	0	0	0
4.129167	0	0	0	0	0	0	0	0	0	0	0	0	0	0	0	0	0	0
4.130208	0	0	0	0	0	0	0	0	0	0	0	0	0	0	0	0	0	0
4.13125	0	0	0	0	0	0	0	0	0	0	0	0	0	0	0	0	0	0
4.132292	0	0	0	0	0	0	0	0	0	0	0	0	0	0	0	0	0	0
4.133333	0	0	0	0	0	0	0	0	0	0	0	0	0	0	0	0	0	0
4.134375	0	0	0	0	0	0	0	0	0	0	0	0	0	0	0	0	0	0
4.135417	0	0	0	0	0	0	0	0	0	0	0	0	0	0	0	0	0	0
4.136458	0	0	0	0	0	0	0	0	0	0	0	0	0	0	0	0	0	0
4.1375	0	0	0	0	0	0	0	0	0	0	0	0	0	0	0	0	0	0
4.138542	0	0	0	0	0	0	0	0	0	0	0	0	0	0	0	0	0	0
4.139583	0	0	0	0	0	0	0	0	0	0	0	0	0	0	0	0	0	0
4.140625	0	0	0	0	0	0	0	0	0	0	0	0	0	0	0	0	0	0
4.141667	0	0	0	0	0	0	0	0	0	0	0	0	0	0	0	0	0	0
4.142708	0	0	0	0	0	0	0	0	0	0	0	0	0	0	0	0	0	0
4.14375	0	0	0	0	0	0	0	0	0	0	0	0	0	0	0	0	0	0
4.144792	0	0	0	0	0	0	0	0	0	0	0	0	0	0	0	0	0	0
4.145833	0	0	0	0	0	0	0	0	0	0	0	0	0	0	0	0	0	0
4.146875	0	0	0	0	0	0	0	0	0	0	0	0	0	0	0	0	0	0
4.147917	0	0	0	0	0	0	0	0	0	0	0	0	0	0	0	0	0	0
4.148958	0	0	0	0	0	0	0	0	0	0	0	0	0	0	0	0	0	0
4.15	0	0	0	0	0	0	0	0	0	0	0	0	0	0	0	0	0	0
4.151042	0	0	0	0	0	0	0	0	0	0	0	0	0	0	0	0	0	0
4.152083	0	0	0	0	0	0	0	0	0	0	0	0	0	0	0	0	0	0
4.153125	0	0	0	0	0	0	0	0	0	0	0	0	0	0	0	0	0	0
4.154167	0	0	0	0	0	0	0	0	0	0	0	0	0	0	0	0	0	0
4.155208	0	0	0	0	0	0	0	0	0	0	0	0	0	0	0	0	0	0
4.15625	0	0	0	0	0	0	0	0	0	0	0	0	0	0	0	0	0	0
4.157292	0	0	0	0	0	0	0	0	0	0	0	0	0	0	0	0	0	0
4.158333	0	0	0	0	0	0	0	0	0	0	0	0	0	0	0	0	0	0
4.159375	0	0	0	0	0	0	0	0	0	0	0	0	0	0	0	0	0	0
4.160417	0	0	0	0	0	0	0	0	0	0	0	0	0	0	0	0	0	0
4.161458	0	0	0	0	0	0	0	0	0	0	0	0	0	0	0	0	0	0
4.1625	0	0	0	0	0	0	0	0	0	0	0	0	0	0	0	0	0	0
4.163542	0	0	0	0	0	0	0	0	0	0	0	0	0	0	0	0	0	0
4.164583	0	0	0	0	0	0	0	0	0	0	0	0	0	0	0	0	0	0
4.165625	0	0	0	0	0	0	0	0	0	0	0	0	0	0	0	0	0	0
4.166667	0	0	0	0	0	0	0	0	0	0	0	0	0	0	0	0	0	0
4.167708	0	0	0	0	0	0	0	0	0	0	0	0	0	0	0	0	0	0
4.16875	0	0	0	0	0	0	0	0	0	0	0	0	0	0	0	0	0	0
4.169792	0	0	0	0	0	0	0	0	0	0	0	0	0	0	0	0	0	0
4.170833	0	0	0	0	0	0	0	0	0	0	0	0	0	0	0	0	0	0
4.171875	0	0	0	0	0	0	0	0	0	0	0	0	0	0	0	0	0	0
4.172917	0	0	0	0	0	0	0	0	0	0	0	0	0	0	0	0	0	0
4.173958	0	0	0	0	0	0	0	0	0	0	0	0	0	0	0	0	0	0
4.175	0	0	0	0	0	0	0	0	0	0	0	0	0	0	0	0	0	0
4.176042	0	0	0	0	0	0	0	0	0	0	0	0	0	0	0	0	0	0
4.177083	0	0	0	0	0	0	0	0	0	0	0	0	0	0	0	0	0	0
4.178125	0	0	0	0	0	0	0	0	0	0	0	0	0	0	0	0	0	0
4.179167	0	0	0	0	0	0	0	0	0	0	0	0	0	0	0	0	0	0
4.180208	0	0	0	0	0	0	0	0	0	0	0	0	0	0	0	0	0	0
4.18125	0	0	0	0	0	0	0	0	0	0	0	0	0	0	0	0	0	0
4.182292	0	0	0	0	0	0	0	0	0	0	0	0	0	0	0	0	0	0
4.183333	0	0	0	0	0	0	0	0	0	0	0	0	0	0	0	0	0	0
4.184375	0	0	0	0	0	0	0	0	0	0	0	0	0	0	0	0	0	0
4.185417	0	0	0	0	0	0	0	0	0	0	0	0	0	0	0	0	0	0
4.186458	0	0	0	0	0	0	0	0	0	0	0	0	0	0	0	0	0	0
4.1875	0	0	0	0	0	0	0	0	0	0	0	0	0	0	0	0	0	0
4.188542	0	0	0	0	0	0	0	0	0	0	0	0	0	0	0	0	0	0
4.189583	0	0	0	0	0	0	-0.69106	10.31651	0.7599860000000001	0	0	0	0	0	0	0	0	0
4.190625	0	0	0	0	0	0	-0.867713	10.834476	0.718954	0	0	0	0	0	0	0	0	0
4.191667	0	0	0	0	0	0	-1.034595	11.3984	0.652466	0	0	0	0	0	0	0	0	0
4.192708	0	0	0	0	0	0	-1.193107	12.018529	0.557499	0	0	0	0	0	0	0	0	0
4.19375	0	0	0	0	0	0	-1.345461	12.708039	0.431512	0	0	0	0	0	0	0	0	0
4.194792	0	0	0	0	0	0	-1.494638	13.483393	0.272501	0	0	0	0	0	0	0	0	0
4.195833	0	0	0	0	0	0	-1.644319	14.364664	0.079037	0	0	0	0	0	0	0	0	0
4.196875	0	0	0	0	0	0	-1.798759	15.375862	-0.149715	1.145076	0	-0.125547	0	0	0	0	-2.663473	0
4.197917	0	0	0	0	0	0	-1.962628	16.545229	-0.413983	1.140188	0	-0.141372	0	0	0	0	-2.550025	0
4.198958	0	0	0	0	0	0	-2.140831	17.905499	-0.71339	1.135289	0	-0.157459	0	0	0	0	-2.413271	0
4.2	0	0	0	0	0	0	-2.33829	19.49412	-1.046971	1.130608	0	-0.17351	0	0	0	0	-2.254489	0
4.201042	0	0	0	0	0	0	-2.559735	21.353436	-1.413202	1.126324	0	-0.189217	0	0	0	0	-2.075714	0
4.202083	0	0	0	0	0	0	-2.809494	23.530785	-1.81004	1.122554	0	-0.204288	0	0	0	0	-1.879719	0
4.203125	0	0	0	0	0	0	-3.091302	26.07856	-2.234966	1.119355	0	-0.218468	0	0	0	0	-1.669989	0
4.204167	0	0	0	0	0	0	-3.408138	29.054163	-2.685051	1.11673	0	-0.231557	0	0	0	0	-1.450673	0
4.205208	0	0	0	0	0	0	-3.762108	32.519894	-3.157013	1.114638	0	-0.243419	0	0	0	0	-1.226522	0
4.20625	0	0	0	0	0	0	-4.154375	36.542747	-3.647289	1.113009	0	-0.253985	0	0	0	0	-1.002812	0
4.207292	0	0	0	0	0	0	-4.585138	41.194084	-4.152108	1.111756	0	-0.263245	0	0	0	0	-0.785256	0
4.208333	0	0	0	0	0	0	-5.053682	46.54924	-4.667567	1.110788	0	-0.27124	0	0	0	0	-0.579904	0
4.209375	0	0	0	0	0	0	-5.558471	52.687	-5.189709	1.11002	0	-0.278049	0	0	0	0	-0.393027	0
4.210417	0	0	0	0	0	0	-6.097311	59.688972	-5.714596	1.109374	0	-0.283774	0	0	0	0	-0.231	0
4.211458	0	0	0	0	0	0	-6.667557	67.63885500000001	-6.238387	1.108789	0	-0.28853	0	0	0	0	-0.100175	0
4.2125	0	0	0	0	0	0	-7.266369	76.621582	-6.75741	1.108215	0	-0.292437	0	0	0	0	-0.006749	0
4.213542	0	0	0	0	0	0	-7.891014	86.722404	-7.268227	1.107618	0	-0.29561	0	0	0	-0	0.043369	-0
4.214583	0	0	0	0	0	0	-8.539186000000001	98.025803	-7.767706	1.106974	0	-0.298156	0	0	0	-0	0.044693	-0
4.215625	0	0	0	0	0	0	-9.209352000000001	110.614349	-8.253073000000001	1.106267	0	-0.300174	0	0	0	0	-0.007707	0
4.216667	0	0	0	0	0	0	-9.901104999999999	124.567459	-8.721971999999999	1.105493	0	-0.301749	0	0	0	0	-0.118079	0
4.217708	0	0	0	0	0	0	-10.615504	139.960052	-9.172516	1.104649	0	-0.302956	0	0	0	0	-0.289868	0
4.21875	0	0	0	0	0	0	-11.355392	156.86113	-9.603322	1.103738	0	-0.303858	0	0	0	0	-0.525602	0
4.219792	0	0	0	0	0	0	-12.125669	175.332199	-10.013559	1.102767	0	-0.304509	0	0	0	0	-0.82679	0
4.220833	0	0	0	0	0	0	-12.933518	195.42572	-10.402978	1.101744	0	-0.304952	0	0	0	0	-1.193836	0
4.221875	0	0	0	0	0	0	-13.788547	217.183441	-10.771933	1.100676	0	-0.305226	0	0	0	0	-1.625962	0
4.222917	0	0	0	0	0	0	-14.70285	240.634613	-11.12141	1.099574	0	-0.30536	0	0	0	0	-2.121157	0
4.223958	0	0	0	0	0	0	-15.690982	265.79425	-11.453039	1.098447	0	-0.305378	0	0	0	0	-2.676133	0
4.225	0	0	0	0	0	0	-16.769815	292.661346	-11.769104	1.097303	0	-0.305303	0	0	0	0	-3.28631	0
4.226042	0	0	0	0	0	0	-17.958319	321.217163	-12.072546	1.096153	0	-0.305149	0	0	0	0	-3.945822	0
4.227083	0	0	0	0	0	0	-19.277233	351.423523	-12.366962	1.095003	0	-0.304931	0	0	0	0	-4.647536	0
4.228125	0	0	0	0	0	0	-20.748657	383.221466	-12.656594	1.093862	0	-0.304659	0	0	0	0	-5.38311	0
4.229167	0	0	0	0	0	0	-22.395576	416.529968	-12.946314	1.092735	0	-0.304343	0	0	0	0	-6.143059	0
4.230208	0	0	0	0	0	0	-24.241343	451.244965	-13.2416	1.091629	0	-0.30399	0	0	0	0	-6.916854	0
4.23125	0	0	0	0	0	0	-26.309107	487.239136	-13.548498	1.090547	0	-0.303607	0	0	0	0	-7.693039	0
4.232292	0	0	0	0	0	0	-28.62126	524.361816	-13.873588	1.089493	0	-0.303199	0	0	0	0	-8.459377	0
4.233333	0	0	0	0	0	0	-31.198877	562.439636	-14.223916	1.088471	0	-0.302772	0	0	0	0	-9.203011999999999	0
4.234375	0	0	0	0	0	0	-34.061192	601.278198	-14.606942	1.08748	0	-0.302328	0	0	0	0	-9.910648	0
4.235417	0	0	0	0	0	0	-37.225117	640.663635	-15.030453	1.086523	0	-0.301873	0	0	0	0	-10.568759	0
4.236458	0	0	0	0	0	0	-40.704826	680.366028	-15.502469	1.085598	0	-0.301409	0	0	0	0	-11.163801	0
4.2375	0	0	0	0	0	0	-44.511421	720.142395	-16.031141	1.084705	0	-0.30094	0	0	0	0	-11.682442	0
4.238542	0	0	0	0	0	0	-48.652641	759.741211	-16.624626	1.083842	0	-0.300469	0	0	0	0	-12.111801	0
4.239583	0	0	0	0	0	0	-53.13271	798.907043	-17.290947	1.083007	0	-0.299998	0	0	0	0	-12.439698	0
4.240625	0	0	0	0	0	0	-57.952183	837.385864	-18.037844	1.082196	0	-0.299532	0	0	0	0	-12.654896	0
4.241667	0	0	0	0	0	0	-63.107944	874.930176	-18.872608	1.081408	0	-0.299072	0	0	0	0	-12.747346	0
4.242708	0	0	0	0	0	0	-68.59317799999999	911.30481	-19.801901	1.080637	0	-0.298622	0	0	0	0	-12.708425	0
4.24375	0	0	0	0	0	0	-74.397415	946.292358	-20.831579	1.07988	0	-0.298184	0	0	0	0	-12.53116	0
4.244792	0	0	0	0	0	0	-80.50663	979.6980589999999	-21.966482	1.079133	0	-0.297761	0	0	0	0	-12.21044	0
4.245833	0	0	0	0	0	0	-86.90327499999999	1011.35437	-23.210255	1.078391	0	-0.297357	0	0	0	0	-11.743195	0
4.246875	0	0	0	0	0	0	-93.566345	1041.124878	-24.565144	1.077649	0	-0.296974	0	0	0	0	-11.128557	0
4.247917	0	0	0	0	0	0	-100.471489	1068.906982	-26.031815	1.076902	0	-0.296615	0	0	0	0	-10.367995	0
4.248958	0	0	0	0	0	0	-107.591011	1094.634521	-27.609179	1.076146	0	-0.296283	0	0	0	0	-9.465394999999999	0
4.25	0	0	0	0	0	0	-114.894005	1118.277832	-29.29423	1.075374	0	-0.29598	0	0	0	0	-8.427122000000001	0
4.251042	0	0	0	0	0	0	-122.346413	1139.84436	-31.081926	1.074582	0	-0.295709	0	0	0	0	-7.262024	0
4.252083	0	0	0	0	0	0	-129.911224	1159.377319	-32.965084	1.073762	0	-0.295473	0	0	0	0	-5.9814	0
4.253125	0	0	0	0	0	0	-137.548691	1176.953979	-34.934311	1.072911	0	-0.295274	0	0	0	0	-4.59891	0
4.254167	0	0	0	0	0	0	-145.216721	1192.682251	-36.978001	1.072021	0	-0.295114	0	0	0	0	-3.130453	0
4.255208	0	0	0	0	0	0	-152.871231	1206.697754	-39.082333	1.071086	0	-0.294994	0	0	0	0	-1.593982	0
4.25625	0	0	0	0	0	0	-160.466812	1219.159546	-41.23138	1.0701	0	-0.294915	0	0	0	0	-0.009277000000000001	0
4.257292	0	0	0	0	0	0	-167.957336	1230.245728	-43.407219	1.069056	0	-0.294877	0	0	0	-0	1.602323	-0
4.258333	0	0	0	0	0	0	-175.296707	1240.148682	-45.590107	1.067949	0	-0.294881	0	0	0	-0	3.218235	-0
